<svg width="211.2" height="211.2" xmlns="http://www.w3.org/2000/svg">
    <circle style="fill:#000;fill-opacity:1" cx="105.6" cy="105.6" r="105.6"/>
    <path d="M183.522 77.084c-3.654-8.794-11.067-18.288-16.872-21.29a87.391 87.391 0 0 1 8.517 25.522l.016.14c-9.51-23.697-25.63-33.268-38.802-54.08a102.23 102.23 0 0 1-1.982-3.22 26.565 26.565 0 0 1-.926-1.736 15.306 15.306 0 0 1-1.255-3.33.217.217 0 0 0-.19-.218.3.3 0 0 0-.16 0c-.01 0-.027.02-.04.024-.013.004-.042.024-.061.033l.032-.057c-21.126 12.37-28.298 35.265-28.95 46.723.982-.067 1.954-.15 2.957-.15a42.448 42.448 0 0 1 36.848 21.522 29.036 29.036 0 0 0-20.28-4.924c30.252 15.125 22.136 67.209-19.789 65.255a37.413 37.413 0 0 1-10.944-2.111q-1.235-.462-2.47-1.011c-.475-.217-.95-.434-1.419-.677l.059.036q-.612-.293-1.224-.61c.393.19.762.393 1.165.574C77.481 138.19 69 128.156 67.941 115.98c0 0 3.882-14.468 27.8-14.468 2.584 0 9.982-7.216 10.114-9.308-.032-.683-14.67-6.51-20.377-12.13-3.05-3.006-4.497-4.454-5.78-5.541a25.152 25.152 0 0 0-2.17-1.645 38.997 38.997 0 0 1-.236-20.558 62.283 62.283 0 0 0-20.245 15.647h-.04C53.676 63.753 53.91 49.82 54.1 46.91a15.035 15.035 0 0 0-2.808 1.491 61.241 61.241 0 0 0-8.22 7.042 73.437 73.437 0 0 0-7.863 9.434v.013-.015a71.028 71.028 0 0 0-11.285 25.477l-.113.556c-.158.74-.868 4.498-.97 5.305A97.851 97.851 0 0 0 21.6 107.94v.434a84.114 84.114 0 0 0 166.992 14.223c.14-1.085.256-2.16.382-3.255a86.502 86.502 0 0 0-5.456-42.253zm-8.344 4.32.015.09z" style="fill:#ff0;fill-opacity:1;stroke-width:2.17014"/>
</svg>
